<?xml version="1.0" encoding="UTF-8" standalone="no"?>
<svg
   xmlns:dc="http://purl.org/dc/elements/1.1/"
   xmlns:cc="http://creativecommons.org/ns#"
   xmlns:rdf="http://www.w3.org/1999/02/22-rdf-syntax-ns#"
   xmlns:svg="http://www.w3.org/2000/svg"
   xmlns="http://www.w3.org/2000/svg"
   xmlns:sodipodi="http://sodipodi.sourceforge.net/DTD/sodipodi-0.dtd"
   xmlns:inkscape="http://www.inkscape.org/namespaces/inkscape"
   xml:space="preserve"
   width="210mm"
   height="297mm"
   version="1.1"
   style="shape-rendering:geometricPrecision; text-rendering:geometricPrecision; image-rendering:optimizeQuality; fill-rule:evenodd; clip-rule:evenodd"
   viewBox="0 0 21000 29700"
   id="svg2"
   inkscape:version="0.48.4 r9939"
   sodipodi:docname="virtual_control_stick.svg"><metadata
   id="metadata18"><rdf:RDF><cc:Work
       rdf:about=""><dc:format>image/svg+xml</dc:format><dc:type
         rdf:resource="http://purl.org/dc/dcmitype/StillImage" /></cc:Work></rdf:RDF></metadata><sodipodi:namedview
   pagecolor="#ffffff"
   bordercolor="#666666"
   borderopacity="1"
   objecttolerance="10"
   gridtolerance="10"
   guidetolerance="10"
   inkscape:pageopacity="0"
   inkscape:pageshadow="2"
   inkscape:window-width="1920"
   inkscape:window-height="1033"
   id="namedview16"
   showgrid="false"
   inkscape:zoom="3.3838839"
   inkscape:cx="321.05965"
   inkscape:cy="517.26277"
   inkscape:window-x="-4"
   inkscape:window-y="-4"
   inkscape:window-maximized="1"
   inkscape:current-layer="svg2" />
 <defs
   id="defs4">
  <style
   type="text/css"
   id="style6">
   
    .str0 {stroke:white;stroke-width:7.62}
    .str1 {stroke:white;stroke-width:20}
    .fil0 {fill:none}
    .fil2 {fill:black}
    .fil1 {fill:black;fill-rule:nonzero}
   
  </style>
 
  
  
  
  
 </defs>
 <rect
   style="fill:none"
   id="rect10"
   height="4800"
   width="4800"
   y="12450"
   x="8100"
   class="fil0" /><path
   style="fill:#000000;fill-rule:nonzero;stroke:#ffffff;stroke-width:7.61999989"
   inkscape:connector-curvature="0"
   id="path12"
   d="m 10500,12472 c 657,0 1251,266 1682,696 430,431 696,1025 696,1682 0,657 -266,1251 -696,1682 -431,430 -1025,696 -1682,696 -657,0 -1251,-266 -1682,-696 -430,-431 -696,-1025 -696,-1682 0,-657 266,-1251 696,-1682 431,-430 1025,-696 1682,-696 z m 1628,856 -139,139 c -29,29 -77,29 -106,0 -29,-29 -29,-77 0,-106 l 139,-139 c -381,-356 -888,-581 -1447,-599 l 0,576 c 0,42 -34,75 -75,75 -41,0 -75,-33 -75,-75 l 0,-576 c -559,18 -1066,243 -1447,599 l 139,139 c 29,29 29,77 0,106 -29,29 -77,29 -106,0 l -139,-139 c -356,381 -581,888 -599,1447 l 576,0 c 42,0 75,34 75,75 0,41 -33,75 -75,75 l -576,0 c 18,559 243,1066 599,1447 l 139,-139 c 29,-29 77,-29 106,0 29,29 29,77 0,106 l -139,139 c 381,357 888,581 1447,599 l 0,-576 c 0,-42 34,-75 75,-75 41,0 75,33 75,75 l 0,576 c 559,-18 1066,-242 1447,-599 l -139,-139 c -29,-29 -29,-77 0,-106 29,-29 77,-29 106,0 l 139,139 c 357,-381 581,-888 599,-1447 l -576,0 c -42,0 -75,-34 -75,-75 0,-41 33,-75 75,-75 l 576,0 c -18,-559 -242,-1066 -599,-1447 z"
   class="fil1 str0" /><circle
   style="fill:#000000;stroke:#ffffff;stroke-width:20"
   sodipodi:ry="202"
   sodipodi:rx="202"
   sodipodi:cy="14818"
   sodipodi:cx="6773"
   id="circle14"
   r="202"
   cy="14818"
   cx="6773"
   class="fil2 str1" />
</svg>